<svg xmlns="http://www.w3.org/2000/svg" xmlns:xlink="http://www.w3.org/1999/xlink" viewBox="730 165 200 200">
  <defs>
    <style>
      .cls-1, .cls-2, .cls-3, .cls-6, .cls-7 {
        fill: none;
      }

      .cls-1, .cls-13, .cls-3, .cls-4, .cls-6, .cls-7, .cls-8, .cls-9 {
        stroke: #000;
      }

      .cls-1, .cls-4 {
        stroke-linejoin: bevel;
      }

      .cls-1, .cls-4, .cls-7, .cls-8 {
        stroke-width: 5px;
      }



      .cls-13, .cls-3, .cls-6, .cls-7, .cls-8, .cls-9 {
        stroke-miterlimit: 10;
      }

      .cls-4, .cls-8, .cls-9 {
        fill: #fff;
      }


      .cls-13, .cls-9 {
        stroke-width: 6px;
      }

      .cls-10, .cls-14 {
        font-size: 36px;
      }

      .cls-10, .cls-12 {
        font-family: OrderRg-Bold, Order;
        font-weight: 700;
      }


    </style>
    <clipPath id="clip-path" transform="translate(-69.62 -546.91)">
      <path class="cls-1" d="M100.68,822.6c0,74.33,15.16,95.57,15.16,95.57L152.55,897Z"/>
    </clipPath>
    <clipPath id="clip-path-2" transform="translate(-69.62 -546.91)">
      <path class="cls-2" d="M391.38,625.83c-.5-.29-37.8-21.42-89.24-21.42-51.69,0-89,21.21-89.42,21.42l-4.56,2.64L190,592.86l4-2.39c1.79-1.06,44.77-26.06,108.08-26.06s106.12,25,107.92,26.06l4,2.4L396,628.47Z"/>
    </clipPath>
  </defs>
  <title>VSC_CREST_FINAL</title>
  <g id="SHIELD_1" data-name="SHIELD 1">
    <g id="SHLD_copy" data-name="SHLD copy">
      <g>
        <path class="cls-9" d="M902.13,728.52c-47.36,0-67.9,19-67.9,19,0,122.15,67.9,141.84,67.9,141.84h0S970,869.64,970,747.49c0,0-20.53-19-67.9-19" transform="translate(-69.62 -546.91)"/>
        <line class="cls-9" x1="764.61" y1="200.58" x2="879.78" y2="297.58"/>
      </g>
    </g>
    <g id="SHLD_LETTERS_copy" data-name="SHLD LETTERS copy">
      <g>
        <text class="cls-10" transform="translate(854.62 226.67)">V</text>
        <text class="cls-10" transform="translate(843.24 254.13)">S</text>
        <text class="cls-10" transform="translate(865.38 254.13)">C</text>
      </g>
    </g>
  </g>

</svg>
