<svg xmlns="http://www.w3.org/2000/svg" xmlns:xlink="http://www.w3.org/1999/xlink" viewBox="0 0 1589.81 487.53">
  <defs>
    <style>
      .cls-1, .cls-2, .cls-3, .cls-6, .cls-7 {
        fill: none;
      }

      .cls-1, .cls-13, .cls-3, .cls-4, .cls-6, .cls-7, .cls-8, .cls-9 {
        stroke: #000;
      }

      .cls-1, .cls-4 {
        stroke-linejoin: bevel;
      }

      .cls-1, .cls-4, .cls-7, .cls-8 {
        stroke-width: 5px;
      }

      .cls-3 {
        stroke-linecap: round;
        stroke-width: 9px;
      }

      .cls-13, .cls-3, .cls-6, .cls-7, .cls-8, .cls-9 {
        stroke-miterlimit: 10;
      }

      .cls-4, .cls-8, .cls-9 {
        fill: #fff;
      }

      .cls-5 {
        clip-path: url(#clip-path);
      }

      .cls-6 {
        stroke-width: 3px;
      }

      .cls-13, .cls-9 {
        stroke-width: 6px;
      }

      .cls-10, .cls-14 {
        font-size: 36px;
      }

      .cls-10, .cls-12 {
        font-family: OrderRg-Bold, Order;
        font-weight: 700;
      }

      .cls-11 {
        clip-path: url(#clip-path-2);
      }

      .cls-12 {
        font-size: 32.29px;
      }

      .cls-14 {
        font-family: OrderRg-Regular, Order;
        letter-spacing: 0.04em;
      }

      .cls-15 {
        letter-spacing: 0.02em;
      }

      .cls-16 {
        letter-spacing: 0.04em;
      }

      .cls-17 {
        letter-spacing: 0.03em;
      }

      .cls-18 {
        letter-spacing: 0.02em;
      }

      .cls-19 {
        letter-spacing: 0.03em;
      }

      .cls-20 {
        letter-spacing: 0.03em;
      }

      .cls-21 {
        letter-spacing: 0.03em;
      }

      .cls-22 {
        letter-spacing: 0.01em;
      }

      .cls-23 {
        letter-spacing: 0.03em;
      }

      .cls-24 {
        letter-spacing: 0.04em;
      }

      .cls-25 {
        letter-spacing: 0.04em;
      }

      .cls-26 {
        letter-spacing: 0.02em;
      }

      .cls-27 {
        letter-spacing: 0.03em;
      }

      .cls-28 {
        letter-spacing: 0.03em;
      }

      .cls-29 {
        letter-spacing: 0.02em;
      }
    </style>
    <clipPath id="clip-path" transform="translate(-69.62 -546.91)">
      <path class="cls-1" d="M100.68,822.6c0,74.33,15.16,95.57,15.16,95.57L152.55,897Z"/>
    </clipPath>
    <clipPath id="clip-path-2" transform="translate(-69.62 -546.91)">
      <path class="cls-2" d="M391.38,625.83c-.5-.29-37.8-21.42-89.24-21.42-51.69,0-89,21.21-89.42,21.42l-4.56,2.64L190,592.86l4-2.39c1.79-1.06,44.77-26.06,108.08-26.06s106.12,25,107.92,26.06l4,2.4L396,628.47Z"/>
    </clipPath>
  </defs>
  <title>VSC_CREST_FINAL</title>
  <g id="CREST">
    <g id="IVY_STEM" data-name="IVY STEM">
      <path class="cls-3" d="M196.41,1012.29a173.74,173.74,0,0,1,105.73-35.74c96.27,0,174.6-78.33,174.6-174.62a173.56,173.56,0,0,0-24.58-89.27" transform="translate(-69.62 -546.91)"/>
    </g>
    <g id="IVY_LEAVES" data-name="IVY LEAVES">
      <g>
        <g>
          <path d="M384.39,931.76a21.12,21.12,0,0,1,1.67,4.42,14.15,14.15,0,0,1,0,7.14,17.69,17.69,0,0,1-5.1,8,27.24,27.24,0,0,1-.8-10.54,16.71,16.71,0,0,1,4.23-9m1.18-7.64c-6.46,4.56-9.47,9.87-10.36,15.93s.49,12.79,3.24,19.48c6.09-3.85,10.83-8.9,12.44-14.93a19.09,19.09,0,0,0,0-9.62,32.69,32.69,0,0,0-5.34-10.86Z" transform="translate(-69.62 -546.91)"/>
          <path d="M395.19,960.61a22,22,0,0,1,2.45.13,18.43,18.43,0,0,1,7.52,2.55,21.78,21.78,0,0,1,3.74,2.83l-.85.4a21.41,21.41,0,0,1-4.83,1.66h-.07a20.29,20.29,0,0,1-3.82.39,14.16,14.16,0,0,1-4.35-.65,19.43,19.43,0,0,1-8.57-5.95,31.49,31.49,0,0,1,8.78-1.37m0-5c-5.51,0-11.14,1.56-16.75,3.92,3.78,6.12,8.59,11.09,15,13.16a19.26,19.26,0,0,0,5.89.89,24.68,24.68,0,0,0,10.79-2.51,34.23,34.23,0,0,0,6.45-3.76,29.78,29.78,0,0,0-8.86-8.32,23.11,23.11,0,0,0-9.54-3.22,26.92,26.92,0,0,0-3-.16Z" transform="translate(-69.62 -546.91)"/>
        </g>
        <g>
          <path d="M404.74,916.32a21.3,21.3,0,0,1,2.36,4.07,13.45,13.45,0,0,1,1.2,6.94v0a15.57,15.57,0,0,1-.78,3.45,15.82,15.82,0,0,1-.67,1.68c-.28.56-.6,1.13-.94,1.69s-.84,1.3-1.33,2c-.37-.85-.7-1.68-1-2.51a26.17,26.17,0,0,1-1.54-7.77,16.36,16.36,0,0,1,2.7-9.56m-.1-7.76c-5.56,5.64-7.74,11.28-7.59,17.44a31.27,31.27,0,0,0,1.81,9.31,48.5,48.5,0,0,0,4.57,9.34,35.63,35.63,0,0,0,3.75-3.72,36.08,36.08,0,0,0,3-4.11c.43-.7.83-1.4,1.19-2.12a22.58,22.58,0,0,0,.9-2.23,20.93,20.93,0,0,0,1-4.57,18.33,18.33,0,0,0-1.57-9.51,32.88,32.88,0,0,0-7.05-9.83Z" transform="translate(-69.62 -546.91)"/>
          <path d="M423.38,942.7a18.69,18.69,0,0,1,7,1.26,22.22,22.22,0,0,1,4.22,2.22c-.25.19-.5.37-.74.53a26.77,26.77,0,0,1-4.75,2.48,20.13,20.13,0,0,1-2.11.71,17.7,17.7,0,0,1-2,.35,16,16,0,0,1-1.82.1,16.18,16.18,0,0,1-2.09-.14,15.88,15.88,0,0,1-3.58-.93,20.5,20.5,0,0,1-3.54-1.87,26.26,26.26,0,0,1-2.23-1.63c.93-.46,1.86-.86,2.76-1.2.68-.26,1.36-.49,2-.68l.08,0,.08,0c.72-.24,1.36-.42,2-.57a20.68,20.68,0,0,1,3.85-.56l.89,0m0-5-1.1,0a26.06,26.06,0,0,0-4.82.7c-.79.19-1.57.42-2.36.68s-1.59.5-2.38.8a39.74,39.74,0,0,0-4.66,2.14c-1.52.84-3.12,1.64-4.63,2.61a38.46,38.46,0,0,0,7.79,7,25.68,25.68,0,0,0,4.43,2.33,20.61,20.61,0,0,0,4.75,1.23,19.29,19.29,0,0,0,2.76.19,21.17,21.17,0,0,0,2.37-.13,22.16,22.16,0,0,0,2.7-.47,23.47,23.47,0,0,0,2.72-.91,31.55,31.55,0,0,0,5.67-3,40.81,40.81,0,0,0,5.7-4.8,30.22,30.22,0,0,0-10.13-6.78,23.87,23.87,0,0,0-8.81-1.6Z" transform="translate(-69.62 -546.91)"/>
        </g>
        <g>
          <path d="M422.3,897.74c4.92,4.9,5.21,8.89,5.32,10.39v.06a12.71,12.71,0,0,1-.22,3.33,22,22,0,0,1-1.08,3.78l0,0v0a13.6,13.6,0,0,1-.91,2,27.19,27.19,0,0,1-4.18-9.69,17,17,0,0,1,.1-7,13.64,13.64,0,0,1,.52-1.69l.17-.45c.1-.26.2-.53.3-.77M421,890.11a27.33,27.33,0,0,0-2.85,4.74c-.37.78-.66,1.58-.94,2.34a18.12,18.12,0,0,0-.71,2.28,22.16,22.16,0,0,0-.17,9.06c1.11,6,4.65,12,9.4,17.39a42.4,42.4,0,0,0,3-4.34,24.78,24.78,0,0,0,2.29-4.5,27.08,27.08,0,0,0,1.33-4.65,17.75,17.75,0,0,0,.28-4.66c-.46-6.29-4-12.15-11.66-17.66Z" transform="translate(-69.62 -546.91)"/>
          <path d="M448.23,920.39a19,19,0,0,1,3.88.41,23.09,23.09,0,0,1,4.51,1.48c-3.94,4-8.23,6.11-12.6,6.21h-.31a19.53,19.53,0,0,1-9.7-2.83c.62-.42,1.27-.83,1.94-1.26l.73-.47a25.48,25.48,0,0,1,3.64-1.85,30.34,30.34,0,0,1,3.94-1.24,17.77,17.77,0,0,1,4-.45m0-5a22.7,22.7,0,0,0-5.12.58,35.22,35.22,0,0,0-4.65,1.47,31.26,31.26,0,0,0-4.43,2.25c-1.4.9-2.88,1.8-4.27,2.85s-2.75,2.18-4.08,3.38c5.46,4.49,11.47,7.57,18,7.57h.41c6.64-.16,13.81-3.78,20.14-12.56a30.25,30.25,0,0,0-11.1-5,24.25,24.25,0,0,0-4.93-.52Z" transform="translate(-69.62 -546.91)"/>
        </g>
        <g>
          <path d="M436.52,876.52a22.18,22.18,0,0,1,3.57,3.09,15.67,15.67,0,0,1,2.22,3.07,13,13,0,0,1,1.16,3.15,15.74,15.74,0,0,1,0,7.16v.08c-.16.74-.37,1.5-.61,2.27-.63-.68-1.21-1.37-1.76-2.06a28.65,28.65,0,0,1-2.31-3.38,26.57,26.57,0,0,1-1.66-3.51,15.63,15.63,0,0,1-1-6.83v-.15a14.51,14.51,0,0,1,.44-2.89m-2.61-7.3a26.66,26.66,0,0,0-2.82,10,20.68,20.68,0,0,0,1.31,9,31.06,31.06,0,0,0,2,4.2,32.67,32.67,0,0,0,2.73,4,48.22,48.22,0,0,0,7.35,7.36,42.43,42.43,0,0,0,2.35-4.73,35.69,35.69,0,0,0,1.47-4.85,20.67,20.67,0,0,0,.05-9.45,18.1,18.1,0,0,0-1.63-4.38,20.41,20.41,0,0,0-2.94-4.1,32.9,32.9,0,0,0-9.87-7Z" transform="translate(-69.62 -546.91)"/>
          <path d="M469,894.33l.73,0a21.39,21.39,0,0,1,4.72.73c-.16.23-.32.44-.48.64l0,0,0,0a27.57,27.57,0,0,1-3.69,3.94l0,0,0,0a15.1,15.1,0,0,1-3.53,2.27,16.05,16.05,0,0,1-3.73,1.25,14.47,14.47,0,0,1-2.84.28,19.66,19.66,0,0,1-4.77-.64,24.5,24.5,0,0,1-2.62-.82c.72-.72,1.45-1.4,2.19-2a27,27,0,0,1,7-4.39,20.19,20.19,0,0,1,3.82-1.08,17.79,17.79,0,0,1,3.28-.3m0-5a22.85,22.85,0,0,0-4.2.39,24.41,24.41,0,0,0-4.77,1.35,32.41,32.41,0,0,0-8.34,5.17,38.41,38.41,0,0,0-3.7,3.54c-1.21,1.25-2.41,2.56-3.54,4a38.31,38.31,0,0,0,9.62,4,24.51,24.51,0,0,0,6,.79,18.52,18.52,0,0,0,3.86-.39,21.18,21.18,0,0,0,9.56-4.67,32.39,32.39,0,0,0,4.38-4.66,25.22,25.22,0,0,0,2-3c.64-1.07,1.25-2.21,1.85-3.43A30,30,0,0,0,470,889.35l-.93,0Z" transform="translate(-69.62 -546.91)"/>
        </g>
        <g>
          <path d="M447.08,853.29c4.17,2,6.95,4.67,8.42,8.05a17.78,17.78,0,0,1,1.13,7.21,18.74,18.74,0,0,1-.25,2.23,27.67,27.67,0,0,1-7.13-7.83,16.25,16.25,0,0,1-1.39-3.15l0-.06,0-.07a14.69,14.69,0,0,1-.74-3.35,14.38,14.38,0,0,1-.07-1.74c0-.41,0-.84.07-1.29m-3.79-6.77a25.09,25.09,0,0,0-1.12,5.41c-.07.86-.13,1.69-.16,2.5a18.73,18.73,0,0,0,.09,2.38,20,20,0,0,0,1,4.5,21.37,21.37,0,0,0,1.8,4.11c3,5.29,8.31,9.82,14.53,13.38a32.91,32.91,0,0,0,1.48-5.08,30.4,30.4,0,0,0,.71-5,22.77,22.77,0,0,0-1.51-9.32c-2.51-5.8-7.78-10.2-16.82-12.88Z" transform="translate(-69.62 -546.91)"/>
          <path d="M485.4,865.17c.69,0,1.4,0,2.12.09a21.21,21.21,0,0,1-3.26,5.16l0,0,0,0a15.47,15.47,0,0,1-6.53,4.75h-.05a16.83,16.83,0,0,1-5.95,1,24.1,24.1,0,0,1-4.44-.44c.64-.85,1.31-1.66,1.95-2.44l0,0,0,0a23.58,23.58,0,0,1,6.08-5.36h0l0,0a18.5,18.5,0,0,1,10-2.79m0-5a23.44,23.44,0,0,0-12.69,3.55,28.94,28.94,0,0,0-7.37,6.48,47.76,47.76,0,0,0-3.13,4.08c-1,1.43-1.83,3-2.78,4.52a35.4,35.4,0,0,0,12.23,2.49,21.76,21.76,0,0,0,7.68-1.34,20.42,20.42,0,0,0,8.65-6.2c2.67-3,4.69-7.12,6.34-12.26a32.8,32.8,0,0,0-8.93-1.32Z" transform="translate(-69.62 -546.91)"/>
        </g>
        <g>
          <path d="M453.54,828.62a21.89,21.89,0,0,1,4.42,1.74,13.85,13.85,0,0,1,5.22,4.78,15.19,15.19,0,0,1,1.52,3.12,22.17,22.17,0,0,1,.79,3.72c.08.74.16,1.55.2,2.35a26.92,26.92,0,0,1-8.29-6.51l0,0,0,0a15.13,15.13,0,0,1-3.2-6,22.94,22.94,0,0,1-.6-3.1m-4.85-6a40.55,40.55,0,0,0-.21,5.51,25,25,0,0,0,.81,4.84,20.11,20.11,0,0,0,4.22,8c3.78,4.68,9.71,8.26,16.49,10.75a48.53,48.53,0,0,0,.65-5.25,26.53,26.53,0,0,0-.2-5.06,26.11,26.11,0,0,0-1-4.7,20.24,20.24,0,0,0-2.05-4.24,18.85,18.85,0,0,0-7.06-6.5,33.06,33.06,0,0,0-11.65-3.38Z" transform="translate(-69.62 -546.91)"/>
          <path d="M495.46,833.67c-.09.3-.18.6-.28.89a27.87,27.87,0,0,1-2.1,4.86,17.37,17.37,0,0,1-5.73,5.8,19,19,0,0,1-9.63,2.28h-.47c.46-1,.91-1.86,1.39-2.65l0,0v0a26.06,26.06,0,0,1,2.4-3.43l0-.05.05,0a20.57,20.57,0,0,1,2.71-2.89,18.94,18.94,0,0,1,7-3.84,22,22,0,0,1,4.63-.86m2.06-5.08a27.64,27.64,0,0,0-8.15,1.16,24,24,0,0,0-8.82,4.87,27.17,27.17,0,0,0-3.32,3.54,31,31,0,0,0-2.86,4.08c-.88,1.44-1.57,3-2.34,4.56a49.59,49.59,0,0,0-2,4.91,41.12,41.12,0,0,0,7.72.79,24.06,24.06,0,0,0,12.15-3,22.33,22.33,0,0,0,7.51-7.56,32.69,32.69,0,0,0,2.55-5.86c.36-1.09.69-2.24,1-3.46s.43-2.5.58-3.84a36.74,36.74,0,0,0-4-.23Z" transform="translate(-69.62 -546.91)"/>
        </g>
        <g>
          <path d="M455.86,803.18a22.35,22.35,0,0,1,4.59,1,16.17,16.17,0,0,1,3.45,1.64,12.6,12.6,0,0,1,2.54,2.22,17.73,17.73,0,0,1,4,8.64q-1.31-.43-2.52-1a28.42,28.42,0,0,1-3.69-1.88,21.64,21.64,0,0,1-3.1-2.23,16.41,16.41,0,0,1-5.24-8.42M452.05,798c-.67,0-1.34,0-2,0,.49,7.92,3.16,13.34,7.8,17.37a27.6,27.6,0,0,0,3.81,2.74,33.46,33.46,0,0,0,4.31,2.19,47.7,47.7,0,0,0,10,2.93c.19-7.19-1.58-13.93-5.74-18.55a17.45,17.45,0,0,0-3.54-3.07,20.75,20.75,0,0,0-4.57-2.18,30.72,30.72,0,0,0-10-1.47Z" transform="translate(-69.62 -546.91)"/>
          <path d="M498.06,801.24q0,.45-.12.87a26.69,26.69,0,0,1-1.37,5.22,21,21,0,0,1-.92,2.08,16.16,16.16,0,0,1-3.77,4.57,18.8,18.8,0,0,1-9.55,3.9,28.35,28.35,0,0,1,5-10,19.54,19.54,0,0,1,6.21-5,21.58,21.58,0,0,1,4.52-1.63m5.06-5.76a29.92,29.92,0,0,0-11.81,2.92,24.45,24.45,0,0,0-7.82,6.25c-4.12,5-6.22,11.53-7.59,18.59H477c6.8,0,13.32-1.39,18.13-5.46a21,21,0,0,0,3.5-3.75,19.3,19.3,0,0,0,1.47-2.31,27.29,27.29,0,0,0,1.17-2.62,32.72,32.72,0,0,0,1.63-6.18,37.58,37.58,0,0,0,.24-7.45Z" transform="translate(-69.62 -546.91)"/>
        </g>
        <g>
          <path d="M455.24,777.67a15.53,15.53,0,0,1,10,3.11,15.74,15.74,0,0,1,1.32,1.15,13.06,13.06,0,0,1,1,1.23,20.79,20.79,0,0,1,2,3.33c.33.67.64,1.38.93,2.12-.91-.15-1.79-.33-2.64-.53a26.53,26.53,0,0,1-7.38-3,15.31,15.31,0,0,1-5-4.72c-.25-.39-.51-.87-.81-1.42l-.14-.25,0-.06,0-.06c-.17-.29-.34-.6-.49-.91l1.29,0m0-5a37,37,0,0,0-7.86.91,25.53,25.53,0,0,0,1.6,5.28,22.68,22.68,0,0,0,1.13,2.26c.39.71.75,1.4,1.19,2a20,20,0,0,0,6.59,6.23,31.58,31.58,0,0,0,8.79,3.54,47.85,47.85,0,0,0,10.3,1.25,33.46,33.46,0,0,0-1-5.18,36.54,36.54,0,0,0-1.88-4.72,26.33,26.33,0,0,0-2.48-4.12,18.11,18.11,0,0,0-1.5-1.78,18.75,18.75,0,0,0-1.78-1.56,20.44,20.44,0,0,0-13.06-4.16Z" transform="translate(-69.62 -546.91)"/>
          <path d="M495.18,768.87c0,.33,0,.66,0,1,0,1,0,1.92,0,2.8,0,.41-.06.81-.11,1.13s-.15.79-.23,1.16a17.42,17.42,0,0,1-3.58,7.47,15,15,0,0,1-2.67,2.46,21.08,21.08,0,0,1-3.54,2,26.9,26.9,0,0,1-2.59,1c.12-1.05.27-2.07.48-3.06a28.86,28.86,0,0,1,2.89-7.79,19.12,19.12,0,0,1,9.35-8.12m4.19-6.58c-9.2,2.09-14.78,6.71-17.93,12.31a33.94,33.94,0,0,0-3.41,9.21,38.18,38.18,0,0,0-.68,5.07c-.12,1.73-.34,3.51-.37,5.31a38.81,38.81,0,0,0,10.09-2.76,26.82,26.82,0,0,0,4.39-2.45,20.22,20.22,0,0,0,3.6-3.32,22.2,22.2,0,0,0,4.65-9.59c.11-.48.21-1,.3-1.49s.11-1,.15-1.56a32.68,32.68,0,0,0,.06-3.31,45.78,45.78,0,0,0-.85-7.42Z" transform="translate(-69.62 -546.91)"/>
        </g>
        <g>
          <path d="M452.67,752.37a13.06,13.06,0,0,1,6.69,1.67,17.26,17.26,0,0,1,5.4,4.88c.41.63.82,1.29,1.21,2h-.2a27.28,27.28,0,0,1-10.25-1.74,18.33,18.33,0,0,1-5.87-4,15,15,0,0,1-1.83-2.27,22,22,0,0,1,4.85-.58m0-5a32.75,32.75,0,0,0-12,2.6,25.78,25.78,0,0,0,1.25,2.58,22.52,22.52,0,0,0,1.23,2.35,20.2,20.2,0,0,0,3,3.87,23.05,23.05,0,0,0,7.5,5,32.37,32.37,0,0,0,12.13,2.11,51.12,51.12,0,0,0,7.61-.59,41.59,41.59,0,0,0-4.52-9.27,22.26,22.26,0,0,0-7-6.37,18,18,0,0,0-9.16-2.32Z" transform="translate(-69.62 -546.91)"/>
          <path d="M487.08,737.3a27.52,27.52,0,0,1,.58,6.27,17.26,17.26,0,0,1-.6,4.19,15.84,15.84,0,0,1-1.63,3.57,19.25,19.25,0,0,1-7.79,6.88c0-1,0-2,.05-3v-.17a23.85,23.85,0,0,1,1.4-8,19.29,19.29,0,0,1,1.76-3.52,19.74,19.74,0,0,1,2.54-3.25,21.91,21.91,0,0,1,3.68-3m2.93-7.12a29.69,29.69,0,0,0-10.19,6.62,24.54,24.54,0,0,0-3.17,4.05,24.28,24.28,0,0,0-2.23,4.44,29.14,29.14,0,0,0-1.72,9.63,43.5,43.5,0,0,0,.68,10.42c6.84-2.2,12.81-5.67,16.32-11.4a21.5,21.5,0,0,0,2.14-4.71,21.78,21.78,0,0,0,.82-5.51A31.67,31.67,0,0,0,490,730.18Z" transform="translate(-69.62 -546.91)"/>
        </g>
        <g>
          <path d="M444.88,728a13.58,13.58,0,0,1,4.5.75,15.09,15.09,0,0,1,1.59.64,13.59,13.59,0,0,1,1.4.84,21.44,21.44,0,0,1,3,2.49c.53.52,1.05,1.09,1.57,1.7-.91.16-1.81.28-2.69.36a27.89,27.89,0,0,1-2.84.15c-.42,0-.84,0-1.24,0a26.72,26.72,0,0,1-3.84-.49,15.19,15.19,0,0,1-6.29-2.8,17.44,17.44,0,0,1-1.39-1.21l-.08-.07-.08-.07c-.26-.23-.51-.46-.77-.71a19.34,19.34,0,0,1,7.17-1.55m0-5c-4.43,0-9.29,1.5-14.72,4.8a25.29,25.29,0,0,0,3.24,4.48,23,23,0,0,0,1.81,1.76,21.33,21.33,0,0,0,1.79,1.55,20.27,20.27,0,0,0,8.29,3.71,31.09,31.09,0,0,0,4.61.59c.49,0,1,0,1.5,0,1.09,0,2.2-.06,3.33-.17a48.54,48.54,0,0,0,10.15-2.2,42.27,42.27,0,0,0-2.67-4.56,36.59,36.59,0,0,0-3.33-3.83,26.31,26.31,0,0,0-3.7-3.07,19.6,19.6,0,0,0-2-1.2A22.83,22.83,0,0,0,451,724a18.91,18.91,0,0,0-6.11-1Z" transform="translate(-69.62 -546.91)"/>
          <path d="M473.76,707.64c.12.29.24.59.35.88a19.83,19.83,0,0,1,1.3,4.85v.13a17.45,17.45,0,0,1-.92,8.23v0a16.75,16.75,0,0,1-4.41,6.18,26.54,26.54,0,0,1-2.09,1.76c-.24-1-.43-2-.56-3a26,26,0,0,1-.23-4.21c0-.5.06-1.07.11-1.67l0-.52c0-.64.13-1.27.23-1.87a19.21,19.21,0,0,1,6.18-10.8m1.79-7.6c-8,5-11.75,11.2-12.89,17.51-.14.8-.24,1.59-.3,2.39s-.14,1.64-.16,2.46a30.93,30.93,0,0,0,.27,5,38.79,38.79,0,0,0,1,5c.38,1.7.82,3.43,1.37,5.14a38.31,38.31,0,0,0,8.62-5.91,21.84,21.84,0,0,0,5.67-8.09A22.1,22.1,0,0,0,480.39,713a24.18,24.18,0,0,0-1.59-6.18,46.62,46.62,0,0,0-3.25-6.73Z" transform="translate(-69.62 -546.91)"/>
        </g>
      </g>
    </g>
    <g id="FLAG_02" data-name="FLAG 02">
      <g id="MIDDLE">
        <path class="cls-4" d="M100.68,822.6c0,74.33,15.16,95.57,15.16,95.57L152.55,897Z" transform="translate(-69.62 -546.91)"/>
        <g>
          <g class="cls-5">
            <g>
              <g>
                <line class="cls-6" x1="185.43" y1="476.59" x2="279.62" y2="33.48"/>
                <line class="cls-6" x1="208.85" y1="480.3" x2="256.2" y2="29.77"/>
                <line class="cls-6" x1="232.51" y1="28.51" x2="232.51" y2="481.52"/>
                <line class="cls-6" x1="208.84" y1="29.75" x2="256.19" y2="480.28"/>
                <line class="cls-6" x1="185.42" y1="33.46" x2="279.61" y2="476.57"/>
                <line class="cls-6" x1="162.52" y1="39.6" x2="302.51" y2="470.43"/>
                <line class="cls-6" x1="140.38" y1="48.1" x2="324.64" y2="461.94"/>
                <line class="cls-6" x1="119.26" y1="58.86" x2="345.76" y2="451.17"/>
                <line class="cls-6" x1="99.38" y1="71.77" x2="365.65" y2="438.26"/>
                <line class="cls-6" x1="80.95" y1="86.7" x2="384.07" y2="423.34"/>
                <line class="cls-6" x1="64.19" y1="103.46" x2="400.83" y2="406.58"/>
                <line class="cls-6" x1="49.27" y1="121.89" x2="415.75" y2="388.16"/>
                <line class="cls-6" x1="36.35" y1="141.77" x2="428.67" y2="368.27"/>
                <line class="cls-6" x1="25.59" y1="162.9" x2="439.43" y2="347.15"/>
                <line class="cls-6" x1="17.1" y1="185.03" x2="447.93" y2="325.02"/>
                <line class="cls-6" x1="10.96" y1="207.93" x2="454.06" y2="302.12"/>
                <line class="cls-6" x1="7.25" y1="231.35" x2="457.77" y2="278.7"/>
                <line class="cls-6" x1="6.01" y1="255.03" x2="459.01" y2="255.03"/>
                <line class="cls-6" x1="7.25" y1="278.71" x2="457.77" y2="231.35"/>
                <line class="cls-6" x1="10.96" y1="302.12" x2="454.07" y2="207.94"/>
                <line class="cls-6" x1="17.1" y1="325.03" x2="447.93" y2="185.04"/>
                <line class="cls-6" x1="25.59" y1="347.16" x2="439.44" y2="162.9"/>
                <line class="cls-6" x1="36.36" y1="368.28" x2="428.67" y2="141.78"/>
                <line class="cls-6" x1="49.27" y1="388.17" x2="415.76" y2="121.9"/>
                <line class="cls-6" x1="64.19" y1="406.6" x2="400.84" y2="103.47"/>
                <line class="cls-6" x1="80.96" y1="423.36" x2="384.08" y2="86.71"/>
                <line class="cls-6" x1="99.39" y1="438.28" x2="365.66" y2="71.79"/>
                <line class="cls-6" x1="119.27" y1="451.19" x2="345.77" y2="58.88"/>
                <line class="cls-6" x1="140.4" y1="461.96" x2="324.65" y2="48.11"/>
                <line class="cls-6" x1="162.53" y1="470.45" x2="302.52" y2="39.61"/>
              </g>
              <g>
                <line class="cls-6" x1="177.73" y1="474.81" x2="287.32" y2="35.26"/>
                <line class="cls-6" x1="201" y1="479.34" x2="264.05" y2="30.73"/>
                <line class="cls-6" x1="240.42" y1="28.65" x2="224.61" y2="481.38"/>
                <line class="cls-6" x1="216.71" y1="29.06" x2="248.32" y2="480.96"/>
                <line class="cls-6" x1="193.18" y1="31.95" x2="271.85" y2="478.08"/>
                <line class="cls-6" x1="170.08" y1="37.29" x2="294.95" y2="472.74"/>
                <line class="cls-6" x1="147.66" y1="45.01" x2="317.36" y2="465.02"/>
                <line class="cls-6" x1="126.17" y1="55.03" x2="338.85" y2="455"/>
                <line class="cls-6" x1="105.85" y1="67.24" x2="359.17" y2="442.8"/>
                <line class="cls-6" x1="86.92" y1="81.51" x2="378.1" y2="428.53"/>
                <line class="cls-6" x1="69.58" y1="97.68" x2="395.44" y2="412.36"/>
                <line class="cls-6" x1="54.03" y1="115.57" x2="411" y2="394.47"/>
                <line class="cls-6" x1="40.43" y1="134.99" x2="424.59" y2="375.05"/>
                <line class="cls-6" x1="28.93" y1="155.73" x2="436.09" y2="354.32"/>
                <line class="cls-6" x1="19.67" y1="177.55" x2="445.35" y2="332.49"/>
                <line class="cls-6" x1="12.74" y1="200.23" x2="452.28" y2="309.82"/>
                <line class="cls-6" x1="8.22" y1="223.5" x2="456.81" y2="286.55"/>
                <line class="cls-6" x1="6.15" y1="247.13" x2="458.88" y2="262.93"/>
                <line class="cls-6" x1="6.56" y1="270.83" x2="458.46" y2="239.23"/>
                <line class="cls-6" x1="9.45" y1="294.36" x2="455.57" y2="215.7"/>
                <line class="cls-6" x1="14.79" y1="317.46" x2="450.24" y2="192.6"/>
                <line class="cls-6" x1="22.5" y1="339.88" x2="442.53" y2="170.18"/>
                <line class="cls-6" x1="32.53" y1="361.37" x2="432.51" y2="148.7"/>
                <line class="cls-6" x1="44.74" y1="381.69" x2="420.3" y2="128.37"/>
                <line class="cls-6" x1="59.01" y1="400.63" x2="406.03" y2="109.44"/>
                <line class="cls-6" x1="75.18" y1="417.97" x2="389.86" y2="92.1"/>
                <line class="cls-6" x1="93.07" y1="433.53" x2="371.97" y2="76.55"/>
                <line class="cls-6" x1="112.49" y1="447.12" x2="352.55" y2="62.95"/>
                <line class="cls-6" x1="133.23" y1="458.62" x2="331.82" y2="51.45"/>
                <line class="cls-6" x1="155.06" y1="467.88" x2="309.99" y2="42.19"/>
              </g>
              <g>
                <line class="cls-6" x1="170.09" y1="472.77" x2="294.96" y2="37.3"/>
                <line class="cls-6" x1="193.19" y1="478.1" x2="271.86" y2="31.97"/>
                <line class="cls-6" x1="248.32" y1="29.06" x2="216.71" y2="480.97"/>
                <line class="cls-6" x1="224.61" y1="28.65" x2="240.42" y2="481.38"/>
                <line class="cls-6" x1="200.99" y1="30.72" x2="264.04" y2="479.31"/>
                <line class="cls-6" x1="177.72" y1="35.24" x2="287.31" y2="474.79"/>
                <line class="cls-6" x1="155.04" y1="42.17" x2="309.98" y2="467.86"/>
                <line class="cls-6" x1="133.22" y1="51.44" x2="331.8" y2="458.59"/>
                <line class="cls-6" x1="112.48" y1="62.93" x2="352.54" y2="447.1"/>
                <line class="cls-6" x1="93.06" y1="76.53" x2="371.96" y2="433.51"/>
                <line class="cls-6" x1="75.17" y1="92.09" x2="389.85" y2="417.95"/>
                <line class="cls-6" x1="59" y1="109.43" x2="406.02" y2="400.61"/>
                <line class="cls-6" x1="44.73" y1="128.36" x2="420.29" y2="381.68"/>
                <line class="cls-6" x1="32.52" y1="148.69" x2="432.5" y2="361.36"/>
                <line class="cls-6" x1="22.5" y1="170.17" x2="442.52" y2="339.87"/>
                <line class="cls-6" x1="14.78" y1="192.59" x2="450.24" y2="317.46"/>
                <line class="cls-6" x1="9.45" y1="215.7" x2="455.57" y2="294.36"/>
                <line class="cls-6" x1="6.56" y1="239.23" x2="458.46" y2="270.83"/>
                <line class="cls-6" x1="6.15" y1="262.94" x2="458.87" y2="247.12"/>
                <line class="cls-6" x1="8.21" y1="286.55" x2="456.81" y2="223.51"/>
                <line class="cls-6" x1="12.74" y1="309.83" x2="452.29" y2="200.23"/>
                <line class="cls-6" x1="19.67" y1="332.5" x2="445.36" y2="177.56"/>
                <line class="cls-6" x1="28.94" y1="354.32" x2="436.1" y2="155.74"/>
                <line class="cls-6" x1="40.43" y1="375.06" x2="424.6" y2="135"/>
                <line class="cls-6" x1="54.03" y1="394.49" x2="411" y2="115.58"/>
                <line class="cls-6" x1="69.58" y1="412.38" x2="395.45" y2="97.69"/>
                <line class="cls-6" x1="86.93" y1="428.55" x2="378.11" y2="81.52"/>
                <line class="cls-6" x1="105.86" y1="442.82" x2="359.18" y2="67.25"/>
                <line class="cls-6" x1="126.19" y1="455.03" x2="338.86" y2="55.04"/>
                <line class="cls-6" x1="147.67" y1="465.05" x2="317.37" y2="45.02"/>
              </g>
            </g>
          </g>
          <path class="cls-1" d="M100.68,822.6c0,74.33,15.16,95.57,15.16,95.57L152.55,897Z" transform="translate(-69.62 -546.91)"/>
        </g>
        <path class="cls-7" d="M115.84,918.17A232.39,232.39,0,0,1,96,730.09l17.68,44.17L148.16,747a177.71,177.71,0,0,0,15.16,143.72Z" transform="translate(-69.62 -546.91)"/>
      </g>
    </g>
    <g id="FLAG_01" data-name="FLAG 01">
      <path class="cls-8" d="M360.1,932.12a141.86,141.86,0,0,1-58,12.32c-73.55,0-134.25-56-141.73-127.61l-59.73,5.77c10.39,102,96.78,181.84,201.46,181.84a201.36,201.36,0,0,0,82.36-17.51Z" transform="translate(-69.62 -546.91)"/>
    </g>
    <g id="CENT_CIRC_03" data-name="CENT CIRC 03">
      <ellipse class="cls-7" cx="302.14" cy="801.93" rx="142.5" ry="142.51" transform="translate(-73.27 -545.53) rotate(-0.26)"/>
    </g>
    <g id="CENT_CIRC_02" data-name="CENT CIRC 02">
      <ellipse class="cls-7" cx="302.14" cy="801.93" rx="122.5" ry="122.51" transform="translate(-73.27 -545.53) rotate(-0.26)"/>
    </g>
    <g id="CENT_CIRC_01" data-name="CENT CIRC 01">
      <ellipse class="cls-7" cx="302.14" cy="801.93" rx="102.51" ry="102.5" transform="translate(-571.97 550.27) rotate(-89.51)"/>
    </g>
    <g id="SHLD_BURST" data-name="SHLD BURST">
      <g>
        <line class="cls-7" x1="211.21" y1="355.3" x2="253.83" y2="154.75"/>
        <line class="cls-7" x1="221.8" y1="356.98" x2="243.23" y2="153.07"/>
        <line class="cls-7" x1="232.51" y1="152.5" x2="232.51" y2="357.53"/>
        <line class="cls-7" x1="221.8" y1="153.06" x2="243.23" y2="356.97"/>
        <line class="cls-7" x1="211.2" y1="154.74" x2="253.83" y2="355.29"/>
        <line class="cls-7" x1="200.83" y1="157.52" x2="264.19" y2="352.51"/>
        <line class="cls-7" x1="190.82" y1="161.36" x2="274.21" y2="348.67"/>
        <line class="cls-7" x1="181.25" y1="166.24" x2="283.77" y2="343.79"/>
        <line class="cls-7" x1="172.26" y1="172.08" x2="292.77" y2="337.95"/>
        <line class="cls-7" x1="163.92" y1="178.83" x2="301.11" y2="331.2"/>
        <line class="cls-7" x1="156.33" y1="186.42" x2="308.69" y2="323.61"/>
        <line class="cls-7" x1="149.58" y1="194.76" x2="315.45" y2="315.27"/>
        <line class="cls-7" x1="143.73" y1="203.76" x2="321.29" y2="306.27"/>
        <line class="cls-7" x1="138.86" y1="213.32" x2="326.16" y2="296.71"/>
        <line class="cls-7" x1="135.02" y1="223.34" x2="330.01" y2="286.7"/>
        <line class="cls-7" x1="132.24" y1="233.71" x2="332.79" y2="276.33"/>
        <line class="cls-7" x1="130.56" y1="244.3" x2="334.46" y2="265.73"/>
        <line class="cls-7" x1="130" y1="255.02" x2="335.03" y2="255.02"/>
        <line class="cls-7" x1="130.56" y1="265.74" x2="334.46" y2="244.3"/>
        <line class="cls-7" x1="132.24" y1="276.34" x2="332.79" y2="233.71"/>
        <line class="cls-7" x1="135.02" y1="286.7" x2="330.01" y2="223.34"/>
        <line class="cls-7" x1="138.86" y1="296.72" x2="326.17" y2="213.33"/>
        <line class="cls-7" x1="143.73" y1="306.28" x2="321.29" y2="203.77"/>
        <line class="cls-7" x1="149.58" y1="315.28" x2="315.45" y2="194.77"/>
        <line class="cls-7" x1="156.33" y1="323.62" x2="308.7" y2="186.43"/>
        <line class="cls-7" x1="163.92" y1="331.21" x2="301.11" y2="178.84"/>
        <line class="cls-7" x1="172.26" y1="337.96" x2="292.77" y2="172.09"/>
        <line class="cls-7" x1="181.26" y1="343.8" x2="283.77" y2="166.24"/>
        <line class="cls-7" x1="190.82" y1="348.68" x2="274.21" y2="161.37"/>
        <line class="cls-7" x1="200.84" y1="352.52" x2="264.2" y2="157.53"/>
      </g>
    </g>
    <g id="SHLD">
      <g>
        <path class="cls-9" d="M302.13,728.52c-47.36,0-67.9,19-67.9,19,0,122.15,67.9,141.84,67.9,141.84h0S370,869.64,370,747.49c0,0-20.53-19-67.9-19" transform="translate(-69.62 -546.91)"/>
        <line class="cls-9" x1="164.61" y1="200.58" x2="279.78" y2="297.58"/>
      </g>
    </g>
    <g id="SHLD_LETTERS" data-name="SHLD LETTERS">
      <g>
        <text class="cls-10" transform="translate(254.62 226.67)">V</text>
        <text class="cls-10" transform="translate(243.24 254.13)">S</text>
        <text class="cls-10" transform="translate(265.38 254.13)">C</text>
      </g>
    </g>
    <g id="GEAR_WALL" data-name="GEAR WALL">
      <g class="cls-11">
        <g>
          <circle class="cls-2" cx="232.51" cy="255.01" r="232.51"/>
          <polygon class="cls-7" points="46.89 134.47 40.89 123.32 44.4 118.35 48.05 113.47 51.81 108.69 64.22 111.29 68.1 106.98 63.85 94.97 68.1 90.61 72.46 86.36 76.93 82.23 88.78 86.73 93.23 83.02 90.97 70.55 95.84 66.91 100.81 63.4 105.88 60.01 116.86 66.29 121.71 63.4 121.56 50.68 126.98 47.9 132.45 45.15 137.96 42.6 147.8 50.5 153.18 48.35 154.9 35.82 160.67 33.9 166.37 32.08 172.34 30.4 180.84 39.77 186.49 38.49 190.14 26.37 196.15 25.35 202.17 24.46 208.21 23.77 215.15 34.37 221 34.16 226.43 22.58 232.51 22.5 238.61 22.59 244.14 34.1 249.89 34.37 256.83 23.78 262.82 24.49 269.14 25.37 274.72 26.37 278.55 38.5 284.19 39.77 292.52 30.4 298.56 32.1 304.57 33.88 309.96 35.82 311.86 48.35 317.23 50.5 326.9 42.6 332.61 45.09 338.2 47.85 343.47 50.69 343.2 63.33 348.18 66.29 359.16 60.02 364.22 63.4 369.19 66.92 374.07 70.56 371.8 83.02 376.26 86.73 388.1 82.23 392.57 86.36 396.93 90.61 401.18 94.97 396.92 106.86 400.81 111.29 413.22 108.7 416.99 113.48 420.63 118.36 424.14 123.33 418.15 134.47 232.51 255.01 46.89 134.47"/>
        </g>
      </g>
    </g>
    <g id="CAST_01" data-name="CAST 01">
      <g>
        <path class="cls-8" d="M178.92,641.32l-16.78-21.87c6.72-1.16,16.74.46,25.77,15.19" transform="translate(-69.62 -546.91)"/>
        <path class="cls-8" d="M196.44,629.41c-20.05-32.71-46.8-15.82-46.8-15.82l-3.85-9.82q5.42-4.28,11.05-8.26l7.28,7.22,5-3.36-4-9.46c4.17-2.71,12.76-7.75,12.76-7.75l6.55,7.92,5.28-2.84-3-9.85q5.19-2.68,10.53-5.13l6.3,8.12-6.91,14.39,13.62,26.73" transform="translate(-69.62 -546.91)"/>
      </g>
    </g>
    <g id="CAST_03" data-name="CAST 03">
      <g>
        <path class="cls-8" d="M425.19,641.32,442,619.45c-6.71-1.16-16.74.46-25.77,15.19Z" transform="translate(-69.62 -546.91)"/>
        <path class="cls-8" d="M407.67,629.41c20-32.71,46.79-15.82,46.79-15.82l3.85-9.82s-7.28-5.6-11-8.26L440,602.73l-5-3.36,4-9.46c-4.17-2.71-12.75-7.75-12.75-7.75l-6.56,7.92-5.28-2.84,3-9.85q-5.21-2.68-10.53-5.13l-6.31,8.12,6.91,14.39L393.89,621.5Z" transform="translate(-69.62 -546.91)"/>
      </g>
    </g>
    <g id="CAST_02" data-name="CAST 02">
      <g>
        <path class="cls-8" d="M328.4,601.13l4.18-31.72,13.58-6-.91-10.33q-8.75-1.51-17.7-2.42h0l-2.82,9.94-6-.49-1.17-10.26h0q-7.74-.48-15.61-.48h.17q-7.87,0-15.62.48h0l-1.17,10.26-6,.49-2.83-9.94h0q-8.94.9-17.69,2.42l-.92,10.33,13.85,7.93,3.91,29.75Z" transform="translate(-69.62 -546.91)"/>
        <path class="cls-8" d="M318.05,600c0-23.73-15.89-30.62-15.89-30.62h0S286.25,576.3,286.25,600Z" transform="translate(-69.62 -546.91)"/>
        <path class="cls-8" d="M296.06,600c0-9.46,3.31-15.06,6.09-18.17h0c2.78,3.11,5.71,8.71,5.71,18.17Z" transform="translate(-69.62 -546.91)"/>
      </g>
    </g>
    <g id="TOP_01" data-name="TOP 01">
      <path class="cls-8" d="M302,619.41A181.67,181.67,0,0,1,420.43,663.2l13-15.21A201.66,201.66,0,0,0,302,599.41h.17A201.64,201.64,0,0,0,170.69,648l13,15.21a181.7,181.7,0,0,1,118.47-43.79Z" transform="translate(-69.62 -546.91)"/>
    </g>
    <g id="TOP_02" data-name="TOP 02">
      <path class="cls-8" d="M400.85,673A161.69,161.69,0,0,0,302,639.41h.17A161.69,161.69,0,0,0,203.26,673l-12.17-15.86a181.54,181.54,0,0,1,111-37.77H302a181.56,181.56,0,0,1,111,37.77Z" transform="translate(-69.62 -546.91)"/>
    </g>
    <g id="TOP_03" data-name="TOP 03">
      <path class="cls-8" d="M400,698.59l13.78-14.48A161.91,161.91,0,0,0,302,639.41h.17a161.89,161.89,0,0,0-111.82,44.7l13.78,14.48.08.1A142.12,142.12,0,0,1,400,698.6Z" transform="translate(-69.62 -546.91)"/>
    </g>
    <g id="TYPE">
      <text class="cls-12" transform="matrix(0.29, 0.96, -0.96, 0.29, 53.14, 300.9)">V</text>
      <text class="cls-12" transform="translate(58.56 318) rotate(68.82)">I</text>
      <text class="cls-12" transform="matrix(0.43, 0.9, -0.9, 0.43, 61.92, 326.93)">C</text>
      <text class="cls-12" transform="translate(69.69 342.91) rotate(59.58)">T</text>
      <text class="cls-12" transform="matrix(0.58, 0.81, -0.81, 0.58, 76.7, 354.97)">O</text>
      <text class="cls-12" transform="matrix(0.66, 0.75, -0.75, 0.66, 88.51, 371.25)">R</text>
      <text class="cls-12" transform="matrix(0.73, 0.68, -0.68, 0.73, 100.85, 385.04)">Y</text>
      <text class="cls-12" transform="translate(114.27 397.2) rotate(38.5)"> </text>
      <text class="cls-12" transform="translate(122.14 403.53) rotate(34.38)">S</text>
      <text class="cls-12" transform="matrix(0.88, 0.48, -0.48, 0.88, 136.25, 413.16)">O</text>
      <text class="cls-12" transform="matrix(0.92, 0.38, -0.38, 0.92, 153.99, 422.67)">C</text>
      <text class="cls-12" transform="translate(170.9 429.47) rotate(18.28)">I</text>
      <text class="cls-12" transform="translate(179.98 432.61) rotate(13.74)">A</text>
      <text class="cls-12" transform="translate(199.13 437.07) rotate(8.44)">L</text>
      <text class="cls-12" transform="translate(212.88 439) rotate(4.74)"> </text>
      <text class="cls-12" transform="matrix(1, 0.02, -0.02, 1, 223.13, 439.84)">C</text>
      <text class="cls-12" transform="translate(241.4 439.87) rotate(-4.63)">L</text>
      <text class="cls-12" transform="translate(255.64 438.76) rotate(-9.87)">U</text>
      <text class="cls-12" transform="translate(275.06 435.24) rotate(-15.9)">B</text>
    </g>
  </g>
  <g id="SHIELD_1" data-name="SHIELD 1">
    <g id="SHLD_copy" data-name="SHLD copy">
      <g>
        <path class="cls-9" d="M902.13,728.52c-47.36,0-67.9,19-67.9,19,0,122.15,67.9,141.84,67.9,141.84h0S970,869.64,970,747.49c0,0-20.53-19-67.9-19" transform="translate(-69.62 -546.91)"/>
        <line class="cls-9" x1="764.61" y1="200.58" x2="879.78" y2="297.58"/>
      </g>
    </g>
    <g id="SHLD_LETTERS_copy" data-name="SHLD LETTERS copy">
      <g>
        <text class="cls-10" transform="translate(854.62 226.67)">V</text>
        <text class="cls-10" transform="translate(843.24 254.13)">S</text>
        <text class="cls-10" transform="translate(865.38 254.13)">C</text>
      </g>
    </g>
  </g>
  <g id="SHIELD_2" data-name="SHIELD 2">
    <g id="SHLD_copy_2" data-name="SHLD copy 2">
      <path class="cls-13" d="M1502.13,728.52c-47.36,0-67.9,19-67.9,19,0,122.15,67.9,141.84,67.9,141.84h0s67.9-19.69,67.9-141.84c0,0-20.53-19-67.9-19" transform="translate(-69.62 -546.91)"/>
    </g>
    <g id="Layer_28" data-name="Layer 28">
      <text class="cls-14" transform="translate(1275.49 399.61)">V<tspan class="cls-15" x="19.04" y="0">I</tspan><tspan class="cls-16" x="27.22" y="0">C</tspan><tspan class="cls-17" x="46.69" y="0">T</tspan><tspan class="cls-18" x="62.49" y="0">O</tspan><tspan class="cls-19" x="82.69" y="0">R</tspan><tspan class="cls-20" x="101.31" y="0">Y </tspan><tspan class="cls-21" x="129.89" y="0">S</tspan><tspan class="cls-22" x="147.18" y="0">O</tspan><tspan class="cls-23" x="167.29" y="0">C</tspan><tspan class="cls-24" x="186.11" y="0">I</tspan><tspan class="cls-25" x="195.26" y="0">A</tspan><tspan class="cls-26" x="215.75" y="0">L </tspan><tspan class="cls-27" x="241.31" y="0">C</tspan><tspan class="cls-28" x="260.12" y="0">L</tspan><tspan class="cls-29" x="275.52" y="0">U</tspan><tspan class="cls-26" x="295.35" y="0">B</tspan></text>
    </g>
  </g>
</svg>
